# xmcd
# 
# Track frame offsets:
#   150
#   15080
#   31290
#   48375
#   62152
#   79067
#   94342
#   107517
#   121119
#   138863
#   157978
#   175854
#   191477
#   215743
#   232651
# 
# Disc length: 3320 seconds
# 
# Revision: 2
# Processed by: cddbd v1.5.2PL0 Copyright (c) Steve Scherf et al.
# Submitted via: Synapstar 1.0 
# 
DISCID=b30cf60f
DTITLE=Various Artist - CB60346
DYEAR=2005
DGENRE=Country
TTITLE0=Montgomery Gentry - She Don't Tell Me To
TTITLE1=Evans, Sara - Cheatin'
TTITLE2=Diamond Rio - In God We Still Trust
TTITLE3=Hot Apple Pie - We're Makin' Up
TTITLE4=Wynnona - Attitude
TTITLE5=Tomlinson, Trent - Drunker Than Me
TTITLE6=Wilson, Gretchen - I Don't Feel Like Loving You Today
TTITLE7=Everett, Jace - Bad Things
TTITLE8=Underwood, Carrie - Jesus, Take The Wheel
TTITLE9=Lynne, Rockie - Lipstick
TTITLE10=Yearwood, Trisha - Trying To Love You
TTITLE11=Pinson, Bobby - Way Down
TTITLE12=Dixie Chicks, The - I Hope
TTITLE13=Ingram, Jack - Wherever You Are
TTITLE14=Peck, Danielle - I Don't
EXTD=MediaType: Karaoke CD+G Producer: Chartbuster
EXTT0=
EXTT1=
EXTT2=
EXTT3=
EXTT4=
EXTT5=
EXTT6=
EXTT7=
EXTT8=
EXTT9=
EXTT10=
EXTT11=
EXTT12=
EXTT13=
EXTT14=
PLAYORDER=
